<svg xmlns="http://www.w3.org/2000/svg" xmlns:xlink="http://www.w3.org/1999/xlink" width="500" zoomAndPan="magnify" viewBox="0 0 375 374.999991" height="500" preserveAspectRatio="xMidYMid meet" version="1.2"><g id="c61e7719dc"><path style=" stroke:none;fill-rule:nonzero;fill:#000000;fill-opacity:1;" d="M 5.0625 24.542969 L 78.207031 40.917969 L 141.902344 168.25 L 111.070312 230.761719 Z M 5.0625 24.542969 "/><path style=" stroke:none;fill-rule:nonzero;fill:#000000;fill-opacity:1;" d="M 115.769531 25.695312 L 174.421875 37.152344 L 355.253906 298.019531 L 293.101562 287.925781 Z M 115.769531 25.695312 "/><path style=" stroke:none;fill-rule:nonzero;fill:#000000;fill-opacity:1;" d="M 369.296875 35.097656 L 319.808594 35.097656 L 255.351562 132.890625 L 282.394531 170.863281 Z M 369.296875 35.097656 "/><path style=" stroke:none;fill-rule:nonzero;fill:#000000;fill-opacity:1;" d="M 233.800781 217.394531 L 207.699219 178.40625 L 181.765625 213.972656 C 193.300781 235.304688 214.859375 234.351562 226.894531 231.207031 Z M 233.800781 217.394531 "/><path style=" stroke:none;fill-rule:nonzero;fill:#000000;fill-opacity:1;" d="M 120.679688 244.613281 L 146.898438 181.929688 C 184.261719 246.921875 178.054688 241.71875 242.800781 245.671875 L 192.105469 291.980469 C 164.722656 310.46875 157.589844 306.636719 120.679688 244.613281 Z M 120.679688 244.613281 "/></g></svg>